<?xml version="1.0" standalone="no"?>
<!DOCTYPE svg PUBLIC "-//W3C//DTD SVG 20010904//EN"
 "http://www.w3.org/TR/2001/REC-SVG-20010904/DTD/svg10.dtd">
<svg version="1.0" xmlns="http://www.w3.org/2000/svg"
 width="1244.000000pt" height="1243.000000pt" viewBox="0 0 1244.000000 1243.000000"
 preserveAspectRatio="xMidYMid meet">

<g transform="translate(0.000000,1243.000000) scale(0.100000,-0.100000)"
fill="#000000" stroke="none">
<path d="M4570 12225 l0 -205 410 0 410 0 0 -205 0 -205 -206 -2 -205 -3 0
-193 c0 -106 -2 -199 -5 -207 -5 -13 -40 -15 -210 -15 l-204 0 0 -415 0 -415
-205 0 -205 0 0 -825 0 -825 205 0 205 0 0 -415 0 -415 210 0 210 0 -2 413 -3
412 -207 3 -208 2 0 410 0 410 208 2 207 3 3 208 2 207 410 0 410 0 0 205 0
205 416 2 415 3 2 205 2 205 1038 3 1037 2 0 -210 0 -210 620 0 620 0 0 -205
0 -205 415 0 415 0 0 -210 0 -210 205 0 205 0 0 -410 0 -410 -620 0 -620 0 0
205 0 205 -1450 0 -1450 0 0 -205 0 -205 -415 0 -415 0 0 -210 0 -210 -415 0
-415 0 0 -205 0 -205 -205 0 c-157 0 -205 -3 -205 -12 0 -7 0 -193 0 -413 l0
-400 205 -3 205 -2 0 -210 0 -210 205 0 205 0 0 -205 0 -205 210 0 210 0 0
-830 0 -830 -210 0 -210 0 0 -205 0 -205 -205 0 -205 0 0 205 0 205 -210 0
-210 0 2 -207 3 -208 208 -3 207 -2 0 -205 0 -205 -415 0 -415 0 0 -205 0
-205 -415 0 -415 0 0 205 0 205 -205 0 -205 0 0 205 0 205 -210 0 -210 0 0
210 0 210 -205 0 -205 0 -2 207 -3 206 -205 1 -205 1 -3 208 -2 207 -205 0
-205 0 0 415 0 415 -205 2 -205 3 -3 825 -2 825 -207 3 -208 2 0 410 0 410
-205 0 -205 0 0 -410 0 -410 205 0 205 0 0 -830 0 -830 205 0 205 0 0 -415 0
-415 210 0 210 0 0 -210 0 -210 205 0 205 0 0 -205 0 -205 210 0 210 0 0 -210
0 -210 205 0 205 0 0 -205 0 -205 210 0 210 0 0 -210 0 -210 205 0 205 0 0
-205 0 -205 -1240 0 -1240 0 0 -205 0 -205 205 0 205 0 2 -207 3 -208 208 -3
207 -2 0 -205 0 -205 205 0 205 0 2 -207 3 -208 207 -3 208 -2 2 -203 3 -202
408 -3 c352 -2 407 -4 408 -17 1 -8 3 -19 4 -25 1 -5 3 -91 4 -190 l1 -180
410 0 410 0 0 205 0 205 -415 0 -415 0 0 205 0 205 625 0 625 0 0 210 0 210
413 0 412 -1 3 206 2 205 415 0 415 0 0 208 0 207 202 0 203 0 3 207 2 208
208 2 207 3 3 203 2 202 205 0 205 0 0 415 0 415 205 0 205 0 0 1245 0 1245
625 0 625 0 0 -207 0 -208 37 -1 c21 0 113 -1 206 -2 l167 -2 0 -1030 0 -1030
-207 -2 -208 -3 -3 -412 -2 -413 -205 0 -205 0 0 -415 0 -415 -207 -2 -208 -3
-3 -207 -2 -208 -205 0 -205 0 0 -205 0 -205 -205 0 -205 0 -2 -207 -3 -208
-412 -3 -413 -2 0 -205 0 -205 -415 0 -415 0 0 -205 0 -205 -823 0 c-453 0
-826 -2 -828 -4 -2 -2 -3 -97 -1 -210 l3 -206 1654 0 1655 0 -3 210 -2 210
413 0 412 0 0 205 0 205 415 0 415 0 0 205 0 205 210 0 210 0 0 210 0 210 203
2 202 3 3 203 2 202 210 0 210 0 0 210 0 210 203 2 202 3 3 203 2 202 88 2
c48 1 141 3 207 3 l120 0 3 412 2 413 203 2 202 3 3 413 2 412 210 0 210 0 0
1655 0 1655 -210 0 -210 0 -2 413 -3 412 -205 5 -205 5 0 410 0 410 -207 3
-208 2 0 210 0 210 -205 0 -205 0 -2 203 -3 202 -207 3 -208 2 0 205 c0 188
-1 205 -17 206 -10 1 -101 2 -203 3 l-185 1 -3 208 -2 207 -210 0 -210 0 -2
203 -3 202 -412 3 -413 2 0 210 0 210 -412 0 -413 0 0 202 0 203 -1652 3
-1653 2 0 -205z"/>
<path d="M3738 11998 c-2 -13 -2 -105 0 -205 l3 -183 409 0 410 0 0 205 0 205
-409 0 -410 0 -3 -22z"/>
<path d="M2917 11593 c-4 -3 -7 -95 -7 -204 l0 -199 -207 -2 -208 -3 -3 -202
-2 -203 205 0 205 0 0 -415 0 -415 -205 0 -205 0 0 -1245 0 -1245 205 0 205 0
0 -415 0 -415 210 0 210 0 0 -415 0 -415 205 0 205 0 0 -205 0 -205 210 0 210
0 0 -210 0 -210 205 0 205 0 0 -205 0 -205 206 2 206 3 1 203 2 202 -207 0
-208 0 0 210 0 210 -205 0 -205 0 0 205 0 205 -210 0 -210 0 0 415 0 415 -205
0 -205 0 0 415 0 415 -210 0 -210 0 0 1245 0 1245 210 0 210 0 0 620 0 620
205 0 205 0 0 205 0 205 -403 0 c-222 0 -407 -3 -410 -7z"/>
<path d="M2268 10772 l-188 -2 0 -205 0 -205 205 0 205 0 -2 207 c-3 175 -5
206 -18 207 -8 1 -99 0 -202 -2z"/>
<path d="M1660 10155 l0 -205 -202 -2 -203 -3 -3 -207 -2 -208 205 0 205 0 0
210 0 210 205 0 205 0 0 205 0 205 -205 0 -205 0 0 -205z"/>
<path d="M840 9528 c-1 -2 -2 -186 -3 -411 l-2 -407 207 0 207 0 1 385 c0 212
-2 396 -6 410 l-6 25 -199 0 c-109 0 -199 -1 -199 -2z"/>
<path d="M0 6215 l0 -1655 210 0 210 0 0 -415 0 -415 203 0 204 0 6 -137 c4
-75 7 -258 7 -408 l0 -272 196 -6 c108 -4 201 -4 205 -1 5 3 9 189 9 415 l0
409 -210 0 -210 0 0 415 0 415 -205 0 -205 0 0 23 c0 12 0 757 0 1655 l0 1632
-210 0 -210 0 0 -1655z"/>
</g>
</svg>
